<svg width="512" height="512" viewBox="0 0 512 512" fill="none" xmlns="http://www.w3.org/2000/svg" role="img">
<title>Konsi — ícone verde</title>
<rect width="512" height="512" rx="100" fill="#0A9F82"/>
<path fill-rule="evenodd" clip-rule="evenodd" d="M230.4 105V170.4L142 245V179.4L230.4 105ZM142 268.2V332.6L230.2 408V342.8L142 268.2ZM369.6 105V170.2C369.6 170.2 268.2 252 268.4 255.8C268.6 259.6 369.6 342.6 369.6 342.6V408C369.6 408 225.298 293.733 216.4 277.8C207.502 261.867 207.135 252.933 216.4 237C225.664 221.067 369.6 105 369.6 105Z" fill="white"/>
<path d="M230.4 170.4L230.529 170.553L230.6 170.493V170.4H230.4ZM230.4 105H230.6V104.57L230.271 104.847L230.4 105ZM142 245H141.8V245.43L142.129 245.153L142 245ZM142 179.4L141.871 179.247L141.8 179.307V179.4H142ZM142 332.6H141.8V332.692L141.87 332.752L142 332.6ZM142 268.2L142.129 268.047L141.8 267.769V268.2H142ZM230.2 408L230.07 408.152L230.4 408.434V408H230.2ZM230.2 342.8H230.4V342.707L230.329 342.647L230.2 342.8ZM369.6 170.2L369.725 170.356L369.8 170.296V170.2H369.6ZM369.6 105H369.8V104.582L369.474 104.844L369.6 105ZM268.4 255.8L268.6 255.789V255.789L268.4 255.8ZM369.6 342.6H369.8V342.505L369.727 342.445L369.6 342.6ZM369.6 408L369.476 408.157L369.8 408.413V408H369.6ZM216.4 237L216.227 236.899V236.899L216.4 237ZM230.6 170.4V105H230.2V170.4H230.6ZM142.129 245.153L230.529 170.553L230.271 170.247L141.871 244.847L142.129 245.153ZM141.8 179.4V245H142.2V179.4H141.8ZM230.271 104.847L141.871 179.247L142.129 179.553L230.529 105.153L230.271 104.847ZM142.2 332.6V268.2H141.8V332.6H142.2ZM230.33 407.848L142.13 332.448L141.87 332.752L230.07 408.152L230.33 407.848ZM230 342.8V408H230.4V342.8H230ZM141.871 268.353L230.071 342.953L230.329 342.647L142.129 268.047L141.871 268.353ZM369.8 170.2V105H369.4V170.2H369.8ZM268.6 255.789C268.599 255.78 268.603 255.739 268.645 255.651C268.684 255.568 268.747 255.463 268.837 255.335C269.015 255.079 269.288 254.748 269.652 254.347C270.378 253.545 271.453 252.475 272.828 251.176C275.578 248.579 279.52 245.074 284.259 240.973C293.735 232.772 306.39 222.191 319.052 211.729C331.714 201.267 344.383 190.924 353.885 183.196C358.637 179.332 362.597 176.122 365.369 173.878C366.755 172.756 367.844 171.875 368.587 171.275C368.958 170.975 369.243 170.745 369.435 170.59C369.531 170.513 369.603 170.454 369.652 170.415C369.676 170.395 369.695 170.38 369.707 170.371C369.713 170.366 369.718 170.362 369.721 170.359C369.722 170.358 369.723 170.357 369.724 170.357C369.725 170.356 369.725 170.356 369.6 170.2C369.474 170.044 369.474 170.045 369.473 170.045C369.472 170.046 369.471 170.047 369.47 170.048C369.467 170.051 369.462 170.054 369.456 170.059C369.444 170.069 369.425 170.084 369.401 170.104C369.352 170.143 369.279 170.202 369.183 170.279C368.991 170.434 368.707 170.664 368.335 170.964C367.593 171.564 366.504 172.445 365.117 173.567C362.345 175.811 358.385 179.021 353.633 182.885C344.13 190.614 331.46 200.958 318.797 211.421C306.135 221.884 293.477 232.466 283.997 240.671C279.257 244.773 275.31 248.282 272.554 250.885C271.176 252.187 270.092 253.264 269.355 254.078C268.987 254.485 268.702 254.829 268.509 255.106C268.412 255.244 268.336 255.369 268.283 255.48C268.233 255.586 268.194 255.701 268.2 255.811L268.6 255.789ZM369.6 342.6C369.727 342.445 369.726 342.445 369.726 342.445C369.725 342.444 369.724 342.443 369.722 342.442C369.719 342.439 369.715 342.435 369.708 342.43C369.696 342.42 369.678 342.405 369.654 342.385C369.605 342.345 369.533 342.286 369.437 342.207C369.246 342.05 368.962 341.817 368.593 341.513C367.853 340.904 366.768 340.01 365.387 338.872C362.625 336.595 358.679 333.338 353.943 329.418C344.471 321.577 331.84 311.084 319.203 300.472C306.566 289.86 293.924 279.129 284.428 270.815C279.681 266.658 275.721 263.106 272.943 260.475C271.554 259.16 270.463 258.077 269.717 257.266C269.343 256.86 269.06 256.525 268.869 256.265C268.774 256.135 268.704 256.027 268.659 255.942C268.611 255.851 268.6 255.804 268.6 255.789L268.2 255.811C268.206 255.914 268.25 256.025 268.306 256.129C268.363 256.238 268.445 256.363 268.547 256.502C268.75 256.779 269.045 257.126 269.422 257.536C270.178 258.358 271.277 259.448 272.668 260.766C275.452 263.402 279.416 266.958 284.165 271.116C293.663 279.433 306.308 290.165 318.946 300.778C331.584 311.391 344.216 321.885 353.688 329.726C358.424 333.646 362.37 336.903 365.132 339.18C366.514 340.319 367.599 341.213 368.338 341.821C368.708 342.126 368.992 342.359 369.183 342.516C369.279 342.595 369.351 342.654 369.4 342.694C369.424 342.714 369.442 342.729 369.454 342.739C369.461 342.744 369.465 342.748 369.468 342.751C369.47 342.752 369.471 342.753 369.472 342.754C369.472 342.754 369.473 342.755 369.6 342.6ZM369.8 408V342.6H369.4V408H369.8ZM216.225 277.898C216.793 278.914 217.891 280.308 219.438 282.022C220.988 283.739 222.998 285.787 225.398 288.113C230.199 292.766 236.568 298.539 243.959 305.016C258.741 317.971 277.615 333.75 296.21 349.03C314.804 364.309 333.121 379.091 346.788 390.053C353.622 395.534 359.294 400.06 363.257 403.215C365.239 404.793 366.794 406.029 367.853 406.869C368.382 407.29 368.788 407.612 369.061 407.828C369.198 407.937 369.302 408.019 369.371 408.074C369.406 408.101 369.432 408.122 369.449 408.136C369.458 408.143 369.465 408.148 369.469 408.152C369.471 408.153 369.473 408.155 369.474 408.155C369.475 408.156 369.476 408.157 369.6 408C369.724 407.843 369.723 407.843 369.722 407.842C369.721 407.841 369.72 407.84 369.717 407.838C369.713 407.835 369.706 407.829 369.698 407.822C369.68 407.809 369.654 407.788 369.619 407.76C369.55 407.705 369.447 407.623 369.31 407.515C369.037 407.298 368.631 406.977 368.101 406.556C367.042 405.715 365.488 404.48 363.507 402.903C359.544 399.747 353.872 395.221 347.039 389.741C333.372 378.78 315.057 363.999 296.463 348.721C277.87 333.442 259 317.666 244.223 304.715C236.834 298.24 230.47 292.472 225.676 287.826C223.279 285.503 221.277 283.462 219.735 281.754C218.191 280.043 217.119 278.677 216.574 277.702L216.225 277.898ZM216.227 236.899C211.587 244.879 209.343 251.133 209.389 257.401C209.435 263.669 211.771 269.921 216.225 277.898L216.574 277.702C212.131 269.745 209.834 263.564 209.789 257.398C209.743 251.234 211.948 245.054 216.573 237.101L216.227 236.899ZM369.6 105C369.474 104.844 369.474 104.845 369.473 104.846C369.472 104.847 369.47 104.848 369.468 104.85C369.463 104.853 369.457 104.858 369.448 104.865C369.431 104.88 369.405 104.901 369.37 104.929C369.301 104.984 369.197 105.068 369.061 105.178C368.788 105.398 368.384 105.725 367.855 106.152C366.799 107.006 365.248 108.261 363.271 109.863C359.317 113.068 353.658 117.664 346.839 123.229C333.2 134.36 314.918 149.367 296.346 164.871C277.774 180.376 258.912 196.38 244.113 209.503C236.714 216.065 230.329 221.909 225.503 226.61C223.09 228.961 221.066 231.028 219.499 232.758C217.935 234.484 216.817 235.884 216.227 236.899L216.573 237.101C217.141 236.124 218.233 234.75 219.795 233.026C221.355 231.305 223.373 229.245 225.782 226.897C230.601 222.201 236.981 216.363 244.379 209.803C259.173 196.683 278.032 180.682 296.602 165.179C315.172 149.675 333.453 134.669 347.092 123.539C353.911 117.974 359.569 113.378 363.523 110.174C365.5 108.571 367.05 107.317 368.107 106.463C368.635 106.036 369.04 105.709 369.312 105.489C369.449 105.379 369.552 105.296 369.621 105.24C369.656 105.212 369.682 105.191 369.699 105.177C369.708 105.17 369.714 105.165 369.719 105.161C369.721 105.159 369.723 105.158 369.724 105.157C369.725 105.156 369.725 105.156 369.6 105Z" fill="white"/>
</svg>
