<svg width="500" height="179" viewBox="0 0 500 179" fill="none" xmlns="http://www.w3.org/2000/svg" role="img">
<title>Konsi — logotipo escuro</title>
<g clip-path="url(#clip0_53862_2695)">
<path fill-rule="evenodd" clip-rule="evenodd" d="M52.0457 0V38.5044L0 82.4253V43.8032L52.0457 0ZM0 96.0844V134L51.9279 178.392V140.005L0 96.0844ZM134 0V38.3866C134 38.3866 74.3004 86.5466 74.4182 88.7838C74.5359 91.0211 134 139.888 134 139.888V178.392C134 178.392 49.0416 111.117 43.8031 101.736C38.5645 92.3555 38.3485 87.0961 43.8031 77.7153C49.2576 68.3345 134 0 134 0Z" fill="#0A9F82"/>
<path d="M52.0457 38.5044L52.1216 38.5944L52.1634 38.5591V38.5044H52.0457ZM52.0457 0H52.1634V-0.253006L51.9699 -0.0900898L52.0457 0ZM0 82.4253H-0.11775V82.6787L0.0759413 82.5153L0 82.4253ZM0 43.8032L-0.0758222 43.7131L-0.11775 43.7484V43.8032H0ZM0 134H-0.11775V134.054L-0.0765139 134.09L0 134ZM0 96.0844L0.0760417 95.9945L-0.11775 95.8305V96.0844H0ZM51.9279 178.392L51.8514 178.481L52.0457 178.647V178.392H51.9279ZM51.9279 140.005H52.0457V139.951L52.004 139.915L51.9279 140.005ZM134 38.3866L134.074 38.4783L134.118 38.4429V38.3866H134ZM134 0H134.118V-0.246216L133.926 -0.0916617L134 0ZM134 139.888H134.118V139.832L134.075 139.797L134 139.888ZM134 178.392L133.927 178.484L134.118 178.635V178.392H134ZM43.8031 101.736L43.9059 101.679V101.679L43.8031 101.736ZM52.1634 38.5044V0H51.9279V38.5044H52.1634ZM0.0759413 82.5153L52.1216 38.5944L51.9697 38.4144L-0.0759413 82.3353L0.0759413 82.5153ZM-0.11775 43.8032V82.4253H0.11775V43.8032H-0.11775ZM51.9699 -0.0900898L-0.0758222 43.7131L0.0758222 43.8932L52.1215 0.0900898L51.9699 -0.0900898ZM0.11775 134V96.0844H-0.11775V134H0.11775ZM52.0045 178.302L0.0765139 133.91L-0.0765139 134.09L51.8514 178.481L52.0045 178.302ZM51.8102 140.005V178.392H52.0457V140.005H51.8102ZM-0.0760417 96.1743L51.8519 140.095L52.004 139.915L0.0760417 95.9945L-0.0760417 96.1743ZM134.118 38.3866V0H133.882V38.3866H134.118ZM74.5358 88.7776C74.5355 88.7723 74.5381 88.7477 74.5625 88.6959C74.5855 88.6472 74.6225 88.5854 74.6753 88.5099C74.7806 88.3591 74.9411 88.1646 75.1552 87.9282C75.5829 87.456 76.2155 86.8264 77.0254 86.0616C78.6446 84.5324 80.9654 82.469 83.7552 80.0545C89.3344 75.2258 96.785 68.9967 104.24 62.837C111.695 56.6775 119.153 50.5878 124.748 46.0379C127.545 43.763 129.877 41.8731 131.509 40.5519C132.325 39.8913 132.966 39.3729 133.403 39.0196C133.622 38.843 133.79 38.7077 133.903 38.6165C133.959 38.5709 134.002 38.5363 134.031 38.5132C134.045 38.5016 134.056 38.4929 134.063 38.4871C134.067 38.4841 134.069 38.4819 134.071 38.4805C134.072 38.4798 134.073 38.4792 134.073 38.4788C134.074 38.4785 134.074 38.4783 134 38.3866C133.926 38.295 133.926 38.2952 133.925 38.2955C133.925 38.2959 133.924 38.2965 133.923 38.2972C133.921 38.2987 133.919 38.3009 133.915 38.3038C133.908 38.3096 133.897 38.3183 133.883 38.3299C133.854 38.3531 133.811 38.3876 133.755 38.4332C133.642 38.5244 133.474 38.6598 133.255 38.8365C132.818 39.1898 132.177 39.7082 131.361 40.3689C129.729 41.6902 127.397 43.5802 124.599 45.8552C119.004 50.4053 111.545 56.4954 104.09 62.6555C96.6346 68.8154 89.1824 75.0459 83.6011 79.8764C80.8106 82.2915 78.4867 84.3576 76.8637 85.8904C76.0524 86.6565 75.4145 87.291 74.9806 87.7701C74.7639 88.0094 74.5959 88.2123 74.4822 88.375C74.4255 88.4562 74.3804 88.5301 74.3495 88.5954C74.3201 88.6577 74.2972 88.7254 74.3006 88.79L74.5358 88.7776ZM134 139.888C134.075 139.797 134.074 139.796 134.074 139.796C134.074 139.796 134.073 139.795 134.072 139.794C134.07 139.793 134.067 139.791 134.064 139.788C134.057 139.782 134.046 139.773 134.032 139.761C134.003 139.738 133.96 139.703 133.904 139.656C133.792 139.564 133.625 139.426 133.407 139.247C132.971 138.889 132.333 138.363 131.519 137.693C129.893 136.352 127.57 134.435 124.782 132.126C119.205 127.51 111.769 121.332 104.329 115.084C96.8887 108.836 89.4454 102.519 83.8551 97.624C81.0597 95.1764 78.7286 93.0852 77.0931 91.5365C76.2751 90.762 75.6326 90.1245 75.1934 89.6467C74.9736 89.4076 74.8066 89.2106 74.6944 89.0576C74.6382 88.981 74.5975 88.9178 74.5708 88.8674C74.5426 88.8141 74.5362 88.7863 74.5358 88.7776L74.3006 88.79C74.3038 88.8512 74.3301 88.9161 74.3626 88.9776C74.3967 89.0419 74.4447 89.1154 74.5045 89.1969C74.6242 89.3601 74.7979 89.5645 75.02 89.8061C75.4648 90.2899 76.1119 90.9318 76.9312 91.7075C78.5701 93.2594 80.904 95.353 83.6999 97.8012C89.2922 102.698 96.737 109.017 104.177 115.265C111.618 121.513 119.055 127.692 124.632 132.308C127.42 134.616 129.743 136.534 131.37 137.874C132.183 138.545 132.822 139.071 133.257 139.429C133.475 139.608 133.642 139.746 133.755 139.838C133.811 139.884 133.853 139.92 133.882 139.943C133.896 139.955 133.907 139.964 133.914 139.97C133.918 139.973 133.921 139.975 133.922 139.976C133.923 139.977 133.924 139.978 133.924 139.978C133.925 139.978 133.925 139.978 134 139.888ZM134.118 178.392V139.888H133.882V178.392H134.118ZM43.7003 101.794C44.0346 102.392 44.6812 103.213 45.5919 104.222C46.5044 105.233 47.6876 106.438 49.1008 107.808C51.9273 110.547 55.6774 113.946 60.0287 117.76C68.7316 125.387 79.8437 134.677 90.7912 143.673C101.739 152.669 112.523 161.372 120.57 167.826C124.593 171.052 127.932 173.717 130.266 175.575C131.432 176.504 132.348 177.231 132.971 177.726C133.283 177.974 133.522 178.163 133.683 178.291C133.763 178.355 133.824 178.403 133.865 178.435C133.886 178.452 133.901 178.464 133.911 178.472C133.916 178.476 133.92 178.479 133.923 178.481C133.924 178.482 133.925 178.483 133.926 178.483C133.926 178.484 133.927 178.484 134 178.392C134.073 178.3 134.073 178.299 134.072 178.299C134.071 178.298 134.07 178.298 134.069 178.297C134.067 178.294 134.063 178.291 134.058 178.287C134.047 178.279 134.032 178.267 134.011 178.251C133.971 178.218 133.91 178.17 133.829 178.106C133.668 177.979 133.429 177.789 133.118 177.542C132.494 177.047 131.579 176.32 130.412 175.391C128.079 173.533 124.74 170.868 120.717 167.642C112.671 161.188 101.887 152.486 90.9407 143.491C79.9938 134.496 68.884 125.208 60.1839 117.583C55.8338 113.77 52.0871 110.374 49.2647 107.639C47.8535 106.271 46.6743 105.07 45.7667 104.064C44.8574 103.057 44.2264 102.253 43.9059 101.679L43.7003 101.794ZM43.7013 77.6561C40.9696 82.354 39.6482 86.0359 39.6754 89.7267C39.7026 93.4166 41.0778 97.0977 43.7003 101.794L43.9059 101.679C41.2898 96.9942 39.9377 93.3552 39.9109 89.7249C39.8841 86.0956 41.182 82.4573 43.9049 77.7745L43.7013 77.6561ZM134 0C133.926 -0.0916617 133.926 -0.0913997 133.925 -0.090878C133.924 -0.0903572 133.923 -0.0895757 133.922 -0.088536C133.92 -0.0864564 133.916 -0.0833418 133.911 -0.0791996C133.9 -0.0709152 133.885 -0.0585206 133.865 -0.0420766C133.824 -0.00918868 133.763 0.0398971 133.683 0.104695C133.522 0.234291 133.284 0.426736 132.973 0.678145C132.351 1.18096 131.438 1.91964 130.274 2.8631C127.946 4.75001 124.614 7.45605 120.599 10.7326C112.569 17.2857 101.806 26.121 90.8715 35.2495C79.9375 44.3778 68.8323 53.8 60.1194 61.5267C55.763 65.3899 52.0037 68.8301 49.1626 71.5983C47.7421 72.9823 46.5502 74.1992 45.6277 75.2175C44.7066 76.2341 44.0488 77.0584 43.7013 77.6561L43.9049 77.7745C44.2391 77.1996 44.8826 76.3907 45.8022 75.3757C46.7202 74.3624 47.9083 73.1492 49.327 71.767C52.1642 69.0026 55.9203 65.5651 60.2756 61.7029C68.9859 53.9785 80.089 44.5581 91.0224 35.4302C101.956 26.3025 112.719 17.4678 120.748 10.9151C124.763 7.6387 128.094 4.93282 130.422 3.04604C131.586 2.10266 132.499 1.36405 133.121 0.861293C133.432 0.609915 133.67 0.4175 133.831 0.287933C133.911 0.22315 133.972 0.174079 134.012 0.141205C134.033 0.124768 134.048 0.11238 134.058 0.104103C134.064 0.0999643 134.067 0.0968531 134.07 0.094777C134.071 0.093739 134.072 0.0929601 134.073 0.0924402C134.074 0.091921 134.074 0.0916617 134 0Z" fill="#0A9F82"/>
<g clip-path="url(#clip1_53862_2695)">
<path d="M173.5 50.9999H158V128H174L173.5 94.4999L203 128H224L188 88.9999L224 50.9999H204.5L173.5 84.4999V50.9999Z" fill="#141514"/>
<path d="M341 50.9999H323V128H339V75.4999L373 128H388V50.9999H373V101L341 50.9999Z" fill="#141514"/>
<path d="M499.5 68.4999L485.5 77.9999V128H499.5V68.4999Z" fill="#141514"/>
<path d="M466.5 73.4999H451.5C451.5 73.4999 452.5 64.4999 436 64.4999C419.5 64.4999 420.5 72.5 420.5 72.5C420.5 72.5 417 81.4999 443.5 82.9999C470 84.4999 470 108 470 108C470 108 467.5 131 436 129C404.5 127 403.5 105.5 403.5 105.5H419.5C423.398 112.241 427.046 114.313 436 115C436 115 452.862 115.549 454.5 108C456.326 99.5843 450 95.9999 436 95.9999C422 95.9999 406 88.1445 406 73.4999C406 58.8552 420 49.4998 441.5 50.9999C463 52.5 466.5 73.4999 466.5 73.4999Z" fill="#141514"/>
<path d="M307 89.5C307 111.868 288.868 130 266.5 130C244.132 130 226 111.868 226 89.5C226 67.1325 244.132 49 266.5 49C288.868 49 307 67.1325 307 89.5ZM239.777 89.5C239.777 104.259 251.741 116.223 266.5 116.223C281.259 116.223 293.223 104.259 293.223 89.5C293.223 74.7414 281.259 62.7771 266.5 62.7771C251.741 62.7771 239.777 74.7414 239.777 89.5Z" fill="#141514"/>
<path d="M485.5 70V51H499.5V61.5L485.5 70Z" fill="#0A9F82"/>
</g>
</g>
<defs>
<clipPath id="clip0_53862_2695">
<rect width="499.5" height="178.392" fill="white"/>
</clipPath>
<clipPath id="clip1_53862_2695">
<rect width="341.5" height="81" fill="white" transform="translate(158 49)"/>
</clipPath>
</defs>
</svg>
